# xmcd
#
# Track frame offsets: 
#        150
#        15517
#        33973
#        49396
#        65605
#        80544
#        92958
#        117047
#        130230
#        146206
#        160380
#
# Disc length: 2304 seconds
#
# Revision: 0
# Processed by: cddbd v1.5.2PL0 Copyright (c) Steve Scherf et al.
# Submitted via: ExactAudioCopy v1.0b3
#
DISCID=9708fe0b
DTITLE=The Cazanovas - Just Gettin' By...
DYEAR=2013
DGENRE=Blues
TTITLE0=Just Gettin' By
TTITLE1=Played for a Fool
TTITLE2=Walk With Me
TTITLE3=Ease My Mind
TTITLE4=Worried Mind Blues
TTITLE5=Hands of Time
TTITLE6=I'm Tired
TTITLE7=Love At First Sight
TTITLE8=Finish Line
TTITLE9=Who's Foolin' Who
TTITLE10=Boppin' At Bakos
EXTD=
EXTT0=
EXTT1=
EXTT2=
EXTT3=
EXTT4=
EXTT5=
EXTT6=
EXTT7=
EXTT8=
EXTT9=
EXTT10=
PLAYORDER=
